<svg xmlns="http://www.w3.org/2000/svg" width="325" height="67.192" viewBox="0 0 325 67.192">
  <g id="Group_118" data-name="Group 118" transform="translate(-149.253 -97.818)">
    <g id="Group_114" data-name="Group 114" transform="translate(149.253 97.818)">
      <path id="Path_1638" data-name="Path 1638" d="M157.385,126.869l.086-1.33a1.775,1.775,0,0,0,.06-.22,8.261,8.261,0,0,1,1.314-3.358,6.987,6.987,0,0,1,10.9-1.007c.393.422.738.889,1.11,1.343.241-.247.488-.516.75-.768a6.925,6.925,0,0,1,10.611,1.091,8.27,8.27,0,0,1,.325,8.934,11.82,11.82,0,0,1-3.529,3.974c-3.094,2.294-6.206,4.567-9.305,6.854-.16.118-.243.071-.364-.042-1.2-1.121-2.405-2.23-3.6-3.359-1.933-1.835-3.9-3.638-5.657-5.647a10.613,10.613,0,0,1-2.516-4.943C157.472,127.89,157.445,127.376,157.385,126.869Z" transform="translate(-147.386 -93.003)" fill="#0867ff"/>
      <path id="Path_1639" data-name="Path 1639" d="M215.644,129.484l-3.155-3.154-1.407,1.407,3.155,3.155a.741.741,0,0,1,0,1.045L183.372,162.8a.743.743,0,0,1-.525.216.734.734,0,0,1-.523-.215l-30.867-30.868a.739.739,0,0,1,0-1.044l30.866-30.867a.738.738,0,0,1,1.045,0l8.065,8.064,1.408-1.407-8.066-8.068a2.734,2.734,0,0,0-3.861,0l-30.865,30.866a2.738,2.738,0,0,0,0,3.863l30.867,30.866a2.733,2.733,0,0,0,3.861,0l30.867-30.866a2.729,2.729,0,0,0,0-3.861Z" transform="translate(-149.253 -97.818)" fill="#3b67a6"/>
      <path id="Path_1640" data-name="Path 1640" d="M196.246,111.407a9.578,9.578,0,0,0-3.9-2.544l-.492-.172-.709,1.735.55.189a7.676,7.676,0,0,1,3.172,2.056,9.4,9.4,0,0,1,1.946,10,13.58,13.58,0,0,1-3.314,5.173q-2.794,2.846-5.606,5.678l-4.172,4.22.184,2.01.732-.392a1.748,1.748,0,0,0,.43-.321l3.911-3.956q2.933-2.962,5.854-5.929a15.407,15.407,0,0,0,3.75-5.883A11.153,11.153,0,0,0,196.246,111.407Z" transform="translate(-141.34 -95.322)" fill="#0867ff"/>
      <path id="Path_1641" data-name="Path 1641" d="M203.553,109.494a12.048,12.048,0,0,0-8.881-3.872q-.553,0-1.107.052a11.98,11.98,0,0,0-8.517,4.81l-.074.1c-.3-.27-.607-.534-.926-.783a11.7,11.7,0,0,0-7.272-2.517q-.54,0-1.083.049a12.425,12.425,0,0,0-10.06,7.118,14.076,14.076,0,0,0-1.321,6l0,.552,1.94,0v-.547a12.207,12.207,0,0,1,1.137-5.184,10.478,10.478,0,0,1,8.483-6.008q.454-.042.9-.042a9.772,9.772,0,0,1,6.079,2.107c.466.363.9.764,1.351,1.177l1.088.984.659-.939c.207-.3.418-.6.642-.9a10.056,10.056,0,0,1,7.147-4.049c.31-.03.621-.043.93-.043a10.107,10.107,0,0,1,7.451,3.242c3.346,3.652,4.194,8,2.519,12.939a17.487,17.487,0,0,1-4.273,6.673q-3.674,3.742-7.379,7.475c-1.646,1.664-3.293,3.325-5.044,5.067l-2.292-1.546c-1.3-.875-2.6-1.75-3.894-2.64l-1.327-.906-1.378,1.4,1.606,1.1c1.29.885,2.587,1.757,3.882,2.628l2.39,1.612a1.894,1.894,0,0,0,1.072.364l.148-.006a1.784,1.784,0,0,0,1.113-.553c1.7-1.724,6.734-6.809,6.734-6.809q2.879-2.912,5.753-5.832a19.393,19.393,0,0,0,4.725-7.409C208.4,118.712,207.413,113.709,203.553,109.494Z" transform="translate(-145.796 -96.026)" fill="#0867ff"/>
    </g>
    <g id="Group_117" data-name="Group 117" transform="translate(231.817 108.949)">
      <g id="Group_115" data-name="Group 115">
        <path id="Path_1642" data-name="Path 1642" d="M245.421,134.168c.278-4.508.382-12.517.278-20.353-3.224,6.727-6.206,13.557-8.98,20.422h-5.513c-2.7-6.9-5.686-13.626-8.875-20.283-.036,6.761.069,15.568.346,20.214H216.4c.416-6.484.416-19.347,0-25.831a44.148,44.148,0,0,0,9.084,0c2.6,6.935,5.408,13.729,8.528,20.386,3.225-6.69,6.1-13.417,8.842-20.386a42.489,42.489,0,0,0,8.911,0,256.448,256.448,0,0,0,.1,25.831Z" transform="translate(-216.402 -106.534)" fill="#004aad"/>
        <path id="Path_1643" data-name="Path 1643" d="M271.453,131.252a24.557,24.557,0,0,1-10.507,2.184c-8.425,0-12.759-3.71-12.759-9.881,0-6.241,4.439-9.916,11.477-9.916,6.935,0,12.378,3.71,11.65,10.679-7.87-.139-13.8-.139-17.37-.034.45,3.224,2.635,5.3,7.627,5.236,3.328-.069,7.628-1.179,9.882-3.016A12.156,12.156,0,0,0,271.453,131.252Zm-17.579-8.667c3.328.1,7.732.1,11.788.033a5.565,5.565,0,0,0-6-5.27C256.2,117.348,254.047,119.151,253.874,122.584Z" transform="translate(-209.105 -105.318)" fill="#004aad"/>
        <path id="Path_1644" data-name="Path 1644" d="M293.62,134.5h-5.756a38.775,38.775,0,0,0,.381-4.715c-1.282,3.432-4.022,5.27-8.147,5.27-6.38,0-10.644-4.369-10.644-10.4,0-5.615,3.744-9.431,9.223-9.431,4.992,0,7.558,3.121,9.014,6.484h.451a123.583,123.583,0,0,0-.695-13.695,26.2,26.2,0,0,0,6.588-1.144C292.788,112.175,292.858,129.684,293.62,134.5Zm-5.374-6.622c-.138-4.265-2.08-8.841-7.315-8.841-3.711,0-5.86,2.392-5.86,5.962,0,4.438,3.189,6.761,6.935,6.761A6.6,6.6,0,0,0,288.246,127.882Z" transform="translate(-204.223 -106.871)" fill="#004aad"/>
        <path id="Path_1645" data-name="Path 1645" d="M292.3,110.489c0-1.665,1.214-2.462,3.572-2.462,2.565,0,3.883.8,3.883,2.462s-1.318,2.393-3.883,2.393C293.513,112.881,292.3,112.152,292.3,110.489Zm6.588,5.1a139.274,139.274,0,0,0,0,18.654h-5.963a129.031,129.031,0,0,0,0-18.654A15.667,15.667,0,0,0,298.887,115.585Z" transform="translate(-198.978 -106.606)" fill="#004aad"/>
        <path id="Path_1646" data-name="Path 1646" d="M300.958,121.254c0-8.772,7.141-13.453,18.409-13.453a35.99,35.99,0,0,1,14.181,2.878,21,21,0,0,0,0,5.512,27.151,27.151,0,0,0-13.868-4.23c-7.766-.034-12.689,3.328-12.689,9.292,0,5.617,4.161,9.431,12.481,9.431a19.645,19.645,0,0,0,14.076-5.512,19.465,19.465,0,0,0,.382,5.373c-3.919,2.843-8.391,4.334-15.118,4.334C307.406,134.88,300.958,129.644,300.958,121.254Z" transform="translate(-196.991 -106.658)" fill="#004aad"/>
        <path id="Path_1647" data-name="Path 1647" d="M348.017,132.938a17.725,17.725,0,0,1-.8-4.3c-1.941,2.913-4.437,4.82-9.189,4.82-5.061,0-7.488-2.254-7.488-5.167,0-3.4,3.467-5.547,10.574-5.547h6.034c-.173-3.121-1.248-5.167-6.241-5.167-4.021,0-7.766,1.456-9.778,3.4a16.993,16.993,0,0,0,0-4.958,24.391,24.391,0,0,1,10.576-2.323c6.8,0,10.748,2.218,10.748,8.528.034,4.439.243,7.7,1.179,10.714Zm-.83-5.1c-.036-1.076,0-2.116,0-3.052V124.2h-2.948c-5.131,0-7.836.831-7.836,2.947,0,1.664,1.491,2.635,4.334,2.635A11.54,11.54,0,0,0,347.187,127.841Z" transform="translate(-190.199 -105.304)" fill="#004aad"/>
        <path id="Path_1648" data-name="Path 1648" d="M352.175,132.957a71.723,71.723,0,0,0,0-18.134,21.339,21.339,0,0,0,6.449-1.214,40.357,40.357,0,0,0-1.109,7.455H358c1.351-4.231,4.715-7.386,9.223-7.386,5.374,0,7.176,3.675,7.176,7.975,0,3.675-.138,7.939.451,11.3h-5.893v-8.148c0-4.126-1.734-6.76-4.993-6.76-3.71,0-5.756,3.051-5.756,7.419v7.489Z" transform="translate(-185.233 -105.324)" fill="#004aad"/>
        <path id="Path_1649" data-name="Path 1649" d="M397.045,134.5h-5.757a38.772,38.772,0,0,0,.382-4.715c-1.282,3.432-4.023,5.27-8.148,5.27-6.38,0-10.644-4.369-10.644-10.4,0-5.615,3.744-9.431,9.222-9.431,4.993,0,7.559,3.121,9.015,6.484h.451a123.365,123.365,0,0,0-.693-13.695,26.208,26.208,0,0,0,6.588-1.144C396.212,112.175,396.282,129.684,397.045,134.5Zm-5.374-6.622c-.14-4.265-2.082-8.841-7.317-8.841-3.708,0-5.859,2.392-5.859,5.962,0,4.438,3.191,6.761,6.934,6.761A6.606,6.606,0,0,0,391.671,127.882Z" transform="translate(-180.48 -106.871)" fill="#004aad"/>
        <path id="Path_1650" data-name="Path 1650" d="M412.628,126.347h-.451c-1.317,4.126-4.472,6.346-9.048,6.346-5.132,0-7-3.225-7-7.42,0-3.605.138-7.385-.486-10.435a18.419,18.419,0,0,0,5.79-.832v8.668c0,3.188,1.075,5.928,4.75,5.928,3.814,0,5.756-2.184,5.756-6.552v-7.211A18.493,18.493,0,0,0,417.69,114v15.914c0,3.986-.381,10.783-11.476,10.783a22.972,22.972,0,0,1-10.16-2.219,8.534,8.534,0,0,0,0-4.578c2.219,1.873,6.277,2.947,9.639,2.947,3.987,0,6.935-1.49,6.935-5.581Z" transform="translate(-175.255 -105.233)" fill="#004aad"/>
      </g>
      <g id="Group_116" data-name="Group 116" transform="translate(0 32.185)">
        <path id="Path_1651" data-name="Path 1651" d="M232.829,133.588c-.907,2.224-1.982,6.021-3.017,9.523H226.5c-.448-2.25-1.124-5.612-1.853-7.976-.69,2.352-1.368,5.688-1.828,7.976h-3.413c-.946-3.26-2.02-7.056-3-9.523a9.572,9.572,0,0,0,2.416,0c.652,2.607,1.419,5.522,2.276,8.462.792-2.9,1.469-5.726,1.955-8.462a16.717,16.717,0,0,0,3.2,0c.525,2.709,1.228,5.74,1.969,8.436.947-3.348,1.7-6.238,2.25-8.436A9.178,9.178,0,0,0,232.829,133.588Z" transform="translate(-216.402 -132.923)" fill="#0867ff"/>
        <path id="Path_1652" data-name="Path 1652" d="M238.051,142.037a9.057,9.057,0,0,1-3.873.805c-3.106,0-4.7-1.368-4.7-3.643,0-2.3,1.637-3.657,4.231-3.657,2.557,0,4.564,1.368,4.3,3.937-2.9-.05-5.088-.05-6.4-.012.166,1.189.971,1.956,2.812,1.93a6.686,6.686,0,0,0,3.643-1.112A4.511,4.511,0,0,0,238.051,142.037Zm-6.481-3.2c1.227.038,2.851.038,4.347.012a2.051,2.051,0,0,0-2.212-1.943A1.9,1.9,0,0,0,231.57,138.841Z" transform="translate(-213.401 -132.474)" fill="#0867ff"/>
        <path id="Path_1653" data-name="Path 1653" d="M240.611,142.032a2.92,2.92,0,0,0,0-1.688,7.264,7.264,0,0,0,4.015,1.087c1.227,0,1.853-.306,1.853-.869,0-1.725-6.021.345-6.021-2.8,0-2.032,2.558-2.2,4.015-2.2a12.619,12.619,0,0,1,3.657.562,2.759,2.759,0,0,0,.038,1.7,8.41,8.41,0,0,0-3.81-.933c-1.291,0-1.892.256-1.892.869,0,1.854,6.061-.4,6.061,2.826,0,1.6-1.458,2.25-3.835,2.25A9.521,9.521,0,0,1,240.611,142.032Z" transform="translate(-210.88 -132.469)" fill="#0867ff"/>
        <path id="Path_1654" data-name="Path 1654" d="M251.053,139.792c-.025,1.509.716,1.93,1.637,1.944a7.371,7.371,0,0,0,1.93-.346,3.449,3.449,0,0,0-.026,1.445,8.917,8.917,0,0,1-2.468.4c-1.5-.014-2.888-.575-2.888-2.518,0-.473,0-1.828-.038-3.247-.653.026-1.266.064-1.854.114a6.162,6.162,0,0,0,0-1.38c.575.05,1.189.09,1.815.114-.038-.78-.076-1.521-.14-2.071a6.463,6.463,0,0,0,2.186-.512c-.026.843-.052,1.739-.064,2.62,1.2,0,2.416-.05,3.477-.152a6.162,6.162,0,0,0,0,1.38c-1.075-.1-2.288-.152-3.5-.152C251.091,138.271,251.067,139.089,251.053,139.792Z" transform="translate(-209.298 -132.89)" fill="#0867ff"/>
        <path id="Path_1655" data-name="Path 1655" d="M253.809,139.194c0-2.288,1.65-3.631,4.45-3.631s4.435,1.343,4.435,3.631-1.649,3.643-4.435,3.643S253.809,141.481,253.809,139.194Zm6.788,0a2.345,2.345,0,1,0-2.339,2.364A2.146,2.146,0,0,0,260.6,139.194Z" transform="translate(-207.815 -132.469)" fill="#0867ff"/>
        <path id="Path_1656" data-name="Path 1656" d="M270.846,139.034a3.727,3.727,0,0,1-3.987,3.836,3.29,3.29,0,0,1-2.647-1.177,32.96,32.96,0,0,0,.192,3.529,9.578,9.578,0,0,0-2.416-.026,50.229,50.229,0,0,0,0-9.217,7.985,7.985,0,0,0,2.378-.448,15.325,15.325,0,0,0-.409,2.467h.166a3.708,3.708,0,0,1,3.439-2.442A3.243,3.243,0,0,1,270.846,139.034Zm-2.071.116a2.032,2.032,0,0,0-2.2-2.186c-1.956,0-2.378,1.6-2.378,2.992V141a2.77,2.77,0,0,0,1.943.754A2.468,2.468,0,0,0,268.775,139.149Z" transform="translate(-205.937 -132.477)" fill="#0867ff"/>
        <path id="Path_1657" data-name="Path 1657" d="M276.334,139.792c-.026,1.509.716,1.93,1.637,1.944a7.371,7.371,0,0,0,1.93-.346,3.448,3.448,0,0,0-.026,1.445,8.917,8.917,0,0,1-2.468.4c-1.5-.014-2.888-.575-2.888-2.518,0-.473,0-1.828-.038-3.247-.653.026-1.266.064-1.854.114a6.162,6.162,0,0,0,0-1.38c.575.05,1.189.09,1.815.114-.038-.78-.076-1.521-.14-2.071a6.464,6.464,0,0,0,2.186-.512c-.026.843-.052,1.739-.064,2.62,1.2,0,2.416-.05,3.477-.152a6.162,6.162,0,0,0,0,1.38c-1.075-.1-2.288-.152-3.5-.152C276.372,138.271,276.348,139.089,276.334,139.792Z" transform="translate(-203.494 -132.89)" fill="#0867ff"/>
        <path id="Path_1658" data-name="Path 1658" d="M279.413,143.235a56.383,56.383,0,0,0,0-9.741,7.861,7.861,0,0,0,2.377-.448c-.242,1-.344,4.832-.408,5.8h.166a3.664,3.664,0,0,1,3.387-2.723c1.994,0,2.66,1.356,2.66,2.941a23.58,23.58,0,0,0,.178,4.167h-2.186v-3c0-1.381-.524-2.494-1.867-2.494-1.469,0-2.1,1.292-2.1,2.737v2.76Z" transform="translate(-201.937 -133.047)" fill="#0867ff"/>
        <path id="Path_1659" data-name="Path 1659" d="M295.618,142.037a9.067,9.067,0,0,1-3.874.805c-3.106,0-4.7-1.368-4.7-3.643,0-2.3,1.637-3.657,4.232-3.657,2.556,0,4.563,1.368,4.295,3.937-2.9-.05-5.088-.05-6.4-.012.167,1.189.973,1.956,2.813,1.93a6.686,6.686,0,0,0,3.643-1.112A4.464,4.464,0,0,0,295.618,142.037Zm-6.481-3.2c1.227.038,2.85.038,4.345.012a2.05,2.05,0,0,0-2.211-1.943A1.9,1.9,0,0,0,289.137,138.841Z" transform="translate(-200.186 -132.474)" fill="#0867ff"/>
        <path id="Path_1660" data-name="Path 1660" d="M307.08,139.034a3.728,3.728,0,0,1-3.99,3.836,3.289,3.289,0,0,1-2.646-1.177,32.96,32.96,0,0,0,.192,3.529,9.578,9.578,0,0,0-2.416-.026,50.234,50.234,0,0,0,0-9.217,7.977,7.977,0,0,0,2.378-.448A15.311,15.311,0,0,0,300.19,138h.166a3.705,3.705,0,0,1,3.438-2.442A3.244,3.244,0,0,1,307.08,139.034Zm-2.072.116a2.031,2.031,0,0,0-2.2-2.186c-1.956,0-2.378,1.6-2.378,2.992V141a2.77,2.77,0,0,0,1.943.754A2.467,2.467,0,0,0,305.008,139.149Z" transform="translate(-197.619 -132.477)" fill="#0867ff"/>
        <path id="Path_1661" data-name="Path 1661" d="M306.149,139.194c0-2.288,1.649-3.631,4.447-3.631s4.438,1.343,4.438,3.631-1.65,3.643-4.437,3.643S306.149,141.481,306.149,139.194Zm6.787,0a2.345,2.345,0,1,0-2.34,2.364A2.146,2.146,0,0,0,312.936,139.194Z" transform="translate(-195.799 -132.469)" fill="#0867ff"/>
        <path id="Path_1662" data-name="Path 1662" d="M326.988,135.729c-.88,2.032-2.007,4.922-2.684,6.89h-2.62c-.486-1.841-.933-3.579-1.471-5.344-.5,1.752-.97,3.491-1.457,5.344h-2.608c-.665-1.917-1.917-5.114-2.684-6.89a6.1,6.1,0,0,0,2.314,0c.484,1.739.767,3.132,1.623,5.676.6-2.007,1.151-4.026,1.548-5.676a8.55,8.55,0,0,0,2.62,0c.395,1.675.92,3.657,1.533,5.651.614-2.008,1.164-4,1.611-5.651A5.9,5.9,0,0,0,326.988,135.729Z" transform="translate(-194.12 -132.431)" fill="#0867ff"/>
        <path id="Path_1663" data-name="Path 1663" d="M333.149,142.037a9.065,9.065,0,0,1-3.873.805c-3.107,0-4.7-1.368-4.7-3.643,0-2.3,1.637-3.657,4.231-3.657,2.556,0,4.564,1.368,4.295,3.937-2.9-.05-5.088-.05-6.4-.012.166,1.189.973,1.956,2.813,1.93a6.685,6.685,0,0,0,3.643-1.112A4.464,4.464,0,0,0,333.149,142.037Zm-6.481-3.2c1.227.038,2.85.038,4.345.012a2.051,2.051,0,0,0-2.211-1.943A1.9,1.9,0,0,0,326.668,138.841Z" transform="translate(-191.57 -132.474)" fill="#0867ff"/>
        <path id="Path_1664" data-name="Path 1664" d="M332.584,142.658a25.168,25.168,0,0,0,0-6.647,7.706,7.706,0,0,0,2.314-.448,17.39,17.39,0,0,0-.32,2.762h.166c.7-2.186,2.224-2.941,3.427-2.646a4.311,4.311,0,0,0,0,2.071,4.387,4.387,0,0,0-1.2-.205c-1.457,0-2.2.921-2.2,2.519a11.138,11.138,0,0,0,.2,2.594Z" transform="translate(-189.73 -132.469)" fill="#0867ff"/>
        <path id="Path_1665" data-name="Path 1665" d="M340.064,133.047A69.171,69.171,0,0,0,340,143.235h-2.2a82.407,82.407,0,0,0,0-9.766A7.08,7.08,0,0,0,340.064,133.047Z" transform="translate(-188.533 -133.047)" fill="#0867ff"/>
        <path id="Path_1666" data-name="Path 1666" d="M349.048,142.037a9.065,9.065,0,0,1-3.873.805c-3.107,0-4.7-1.368-4.7-3.643,0-2.3,1.635-3.657,4.231-3.657,2.556,0,4.564,1.368,4.295,3.937-2.9-.05-5.088-.05-6.4-.012.166,1.189.973,1.956,2.813,1.93a6.685,6.685,0,0,0,3.643-1.112A4.466,4.466,0,0,0,349.048,142.037Zm-6.482-3.2c1.228.038,2.851.038,4.347.012a2.051,2.051,0,0,0-2.211-1.943A1.9,1.9,0,0,0,342.566,138.841Z" transform="translate(-187.92 -132.474)" fill="#0867ff"/>
        <path id="Path_1667" data-name="Path 1667" d="M348.49,142.032a2.92,2.92,0,0,0,0-1.688,7.27,7.27,0,0,0,4.015,1.087c1.227,0,1.853-.306,1.853-.869,0-1.725-6.021.345-6.021-2.8,0-2.032,2.557-2.2,4.015-2.2a12.612,12.612,0,0,1,3.657.562,2.76,2.76,0,0,0,.039,1.7,8.414,8.414,0,0,0-3.81-.933c-1.291,0-1.892.256-1.892.869,0,1.854,6.059-.4,6.059,2.826,0,1.6-1.457,2.25-3.834,2.25A9.523,9.523,0,0,1,348.49,142.032Z" transform="translate(-186.114 -132.469)" fill="#0867ff"/>
        <path id="Path_1668" data-name="Path 1668" d="M355.774,142.032a2.92,2.92,0,0,0,0-1.688,7.27,7.27,0,0,0,4.015,1.087c1.228,0,1.853-.306,1.853-.869,0-1.725-6.021.345-6.021-2.8,0-2.032,2.558-2.2,4.015-2.2a12.612,12.612,0,0,1,3.657.562,2.76,2.76,0,0,0,.039,1.7,8.414,8.414,0,0,0-3.81-.933c-1.291,0-1.892.256-1.892.869,0,1.854,6.059-.4,6.059,2.826,0,1.6-1.457,2.25-3.834,2.25A9.523,9.523,0,0,1,355.774,142.032Z" transform="translate(-184.442 -132.469)" fill="#0867ff"/>
        <path id="Path_1669" data-name="Path 1669" d="M363.2,142.665a26.551,26.551,0,0,0,0-6.685,7.908,7.908,0,0,0,2.378-.448,14.734,14.734,0,0,0-.409,2.748h.178a3.619,3.619,0,0,1,3.4-2.723c1.981,0,2.646,1.356,2.646,2.941a25.99,25.99,0,0,0,.167,4.167h-2.174v-3c0-1.521-.639-2.494-1.841-2.494-1.368,0-2.122,1.125-2.122,2.737v2.76Z" transform="translate(-182.703 -132.477)" fill="#0867ff"/>
        <path id="Path_1670" data-name="Path 1670" d="M379.4,142.037a9.061,9.061,0,0,1-3.873.805c-3.106,0-4.7-1.368-4.7-3.643,0-2.3,1.637-3.657,4.232-3.657,2.555,0,4.563,1.368,4.295,3.937-2.9-.05-5.088-.05-6.4-.012.166,1.189.971,1.956,2.812,1.93a6.679,6.679,0,0,0,3.643-1.112A4.51,4.51,0,0,0,379.4,142.037Zm-6.481-3.2c1.227.038,2.85.038,4.347.012a2.051,2.051,0,0,0-2.211-1.943A1.9,1.9,0,0,0,372.918,138.841Z" transform="translate(-180.952 -132.474)" fill="#0867ff"/>
        <path id="Path_1671" data-name="Path 1671" d="M378.842,142.032a2.919,2.919,0,0,0,0-1.688,7.267,7.267,0,0,0,4.015,1.087c1.227,0,1.853-.306,1.853-.869,0-1.725-6.021.345-6.021-2.8,0-2.032,2.558-2.2,4.015-2.2a12.619,12.619,0,0,1,3.657.562,2.768,2.768,0,0,0,.038,1.7,8.4,8.4,0,0,0-3.809-.933c-1.292,0-1.892.256-1.892.869,0,1.854,6.059-.4,6.059,2.826,0,1.6-1.457,2.25-3.835,2.25A9.521,9.521,0,0,1,378.842,142.032Z" transform="translate(-179.146 -132.469)" fill="#0867ff"/>
        <path id="Path_1672" data-name="Path 1672" d="M386.126,142.032a2.919,2.919,0,0,0,0-1.688,7.267,7.267,0,0,0,4.015,1.087c1.227,0,1.853-.306,1.853-.869,0-1.725-6.021.345-6.021-2.8,0-2.032,2.558-2.2,4.015-2.2a12.619,12.619,0,0,1,3.657.562,2.768,2.768,0,0,0,.038,1.7,8.4,8.4,0,0,0-3.809-.933c-1.292,0-1.892.256-1.892.869,0,1.854,6.059-.4,6.059,2.826,0,1.6-1.457,2.25-3.835,2.25A9.521,9.521,0,0,1,386.126,142.032Z" transform="translate(-177.474 -132.469)" fill="#0867ff"/>
      </g>
    </g>
  </g>
</svg>
