<svg id="Group_4" data-name="Group 4" xmlns="http://www.w3.org/2000/svg" width="61.235" height="57.637" viewBox="0 0 61.235 57.637">
  <path id="Path_6" data-name="Path 6" d="M131.67,269.861c-.177.956-.308,1.924-.541,2.866a17.37,17.37,0,0,1-4.755,8.287c-.113.112-.22.232-.34.336a3.9,3.9,0,0,0-1.44,2.576,5.941,5.941,0,0,1-5.309,4.973c-.285.034-.46.082-.513.431A6.113,6.113,0,0,1,113,294.879c-.017,0-.032.021-.05.033a6.356,6.356,0,0,1-5.888,5.937c-.128,3.122-2.282,4.973-4.511,6.6a6.073,6.073,0,0,1-9.041-2.856c-.079-.2-.154-.4-.23-.6a6.3,6.3,0,0,1-7.714-5.531c-.418-.061-.853-.093-1.272-.192a6.194,6.194,0,0,1-4.832-5.927c-.009-.3,0-.5-.39-.585A6.134,6.134,0,0,1,75.8,281.524c.052-.058.1-.121.172-.214a17.51,17.51,0,0,1-5.4-15.122A16.979,16.979,0,0,1,76.418,255.2a17.7,17.7,0,0,1,24.59,1.36c.824-.711,1.606-1.478,2.478-2.124A17.553,17.553,0,0,1,131.447,265.7c.07.429.148.857.222,1.286Zm-23.348-.446c-.112.055-.185.086-.255.125a8.838,8.838,0,0,1-10.654-1.292c-.83-.775-1.609-1.6-2.424-2.4-.524-.509-1.071-.994-1.709-1.584l4.931-4.9c-.141-.153-.269-.3-.41-.443a13.322,13.322,0,0,0-11.782-3.958,12.871,12.871,0,0,0-10.976,9.265c-1.706,5.331-.388,10.1,3.532,14.121a.6.6,0,0,0,.813.14,6.17,6.17,0,0,1,8.566,4.214,16.882,16.882,0,0,1,.217,1.752,6.346,6.346,0,0,1,5.29,5.667,6.322,6.322,0,0,1,5.9,4.5.5.5,0,0,0,.143.024,6.379,6.379,0,0,1,5.882,1.739,1.922,1.922,0,0,0,1.731.456,2.116,2.116,0,0,0,1.748-1.528,2.212,2.212,0,0,0-.645-2.343q-4.088-4.073-8.163-8.16c-.15-.15-.29-.309-.381-.407l2.752-2.756c.105.1.251.229.39.368q2.623,2.62,5.244,5.243c1.015,1.015,2.024,2.036,3.049,3.041a2.223,2.223,0,0,0,3.769-1.3,2.26,2.26,0,0,0-.769-1.98q-4.068-4.051-8.121-8.117c-.151-.151-.3-.308-.409-.427l2.76-2.76c.111.1.257.237.4.376q1.925,1.923,3.849,3.847c1.48,1.48,2.947,2.974,4.445,4.435a2.2,2.2,0,0,0,3.691-.937,2.29,2.29,0,0,0-.726-2.38q-5.658-5.632-11.3-11.285C108.586,269.655,108.467,269.55,108.322,269.415Zm14.833,9.191a.608.608,0,0,0,.15-.084c3.208-3.271,5-7.107,4.381-11.764-1.246-9.339-12.353-16.039-21.547-9.3a52.784,52.784,0,0,0-4.817,4.459c-.794.751-1.559,1.533-2.439,2.4.368.317.7.571.994.862a4.968,4.968,0,0,0,7.423-.012c.389-.389.717-.84,1.117-1.315Zm-19.9,22.137-.146-.081A2.21,2.21,0,0,0,99.42,299c-.6.548-1.173,1.137-1.74,1.725a2.221,2.221,0,1,0,3.142,3.14,18.238,18.238,0,0,0,1.634-1.659A8.916,8.916,0,0,0,103.259,300.742ZM84.2,284.391a2.413,2.413,0,0,0-1.32-2.337,2.1,2.1,0,0,0-2.436.388c-.59.534-1.147,1.105-1.694,1.684a2.221,2.221,0,1,0,3.145,3.136,17.41,17.41,0,0,0,1.592-1.615A7.248,7.248,0,0,0,84.2,284.391Zm5.312,6.5a2.331,2.331,0,0,0-1.339-2.336,2.1,2.1,0,0,0-2.389.395c-.6.553-1.174,1.136-1.736,1.727a2.219,2.219,0,1,0,3.117,3.16,18.039,18.039,0,0,0,1.716-1.745A5.573,5.573,0,0,0,89.515,290.887Zm-.139,7A2.49,2.49,0,0,0,90.819,300a2.09,2.09,0,0,0,2.389-.375c.607-.545,1.175-1.135,1.74-1.725a2.224,2.224,0,1,0-3.144-3.146,18.058,18.058,0,0,0-1.629,1.664A8.939,8.939,0,0,0,89.376,297.887Z" transform="translate(-70.435 -250.869)" fill="#0867ff"/>
</svg>
