<svg xmlns="http://www.w3.org/2000/svg" width="63" height="63" viewBox="0 0 63 63">
  <g id="Group_1" data-name="Group 1" transform="translate(-0.416)">
    <circle id="Ellipse_1" data-name="Ellipse 1" cx="31.5" cy="31.5" r="31.5" transform="translate(0.416)" fill="#0867ff"/>
    <path id="Path_1" data-name="Path 1" d="M-284.993,368.929h-.581a.425.425,0,0,0-.089-.035,2,2,0,0,1-1.5-1.1,3.9,3.9,0,0,1-.385-1.877q0-9.384.006-18.767a5.389,5.389,0,0,1,.178-1.36,2.085,2.085,0,0,1,2.253-1.647,4.023,4.023,0,0,1,1.7.588q8.216,4.712,16.428,9.43a5.382,5.382,0,0,1,1.077.811,2.073,2.073,0,0,1,.143,2.977,4.317,4.317,0,0,1-1.247.984l-15.571,8.929A7.219,7.219,0,0,1-284.993,368.929Z" transform="translate(311.544 -324.969)" fill="#fff"/>
  </g>
</svg>
