<svg id="Group_5" data-name="Group 5" xmlns="http://www.w3.org/2000/svg" width="48.885" height="55.849" viewBox="0 0 48.885 55.849">
  <path id="Path_7" data-name="Path 7" d="M-409.265,285.5c-.945-.4-1.885-.809-2.835-1.2a14.115,14.115,0,0,1-7.587-6.39,11.475,11.475,0,0,1-1.356-5.443q-.007-6.953,0-13.906a1.835,1.835,0,0,1,1.556-2.1q5.555-1.752,11.105-3.517a2.377,2.377,0,0,1,1.541,0c1.05.349,2.106.68,3.166,1a.807.807,0,0,0,.557,0c1.422-.792,2.831-1.609,4.234-2.413a12.034,12.034,0,0,1-4.669-10.494,11.724,11.724,0,0,1,4.066-8.3,12.209,12.209,0,0,1,17.052.795,12.271,12.271,0,0,1-1.545,18.09c.191.087.357.17.529.24a17.882,17.882,0,0,1,11.272,16.659c.018,4.908-.016,9.816.019,14.724a2.14,2.14,0,0,1-1.324,2.251Zm10.425-30.029c1.109.353,2.093.665,3.076.981a1.834,1.834,0,0,1,1.57,2.141q0,6.844,0,13.687a11.878,11.878,0,0,1-3.831,8.892,3.817,3.817,0,0,0-.474.81h14.1v-.937q0-7.28,0-14.56a1.764,1.764,0,0,1,1.079-1.791,1.74,1.74,0,0,1,2.413,1.722q.01,7.471,0,14.941v.622h5.236v-.614q0-6.271,0-12.542c0-.617-.032-1.236-.09-1.849A14.411,14.411,0,0,0-386.6,254.51a25.517,25.517,0,0,0-7.43-.346A12.929,12.929,0,0,0-398.841,255.47Zm1.156,11.035c0-2.145-.015-4.29.012-6.435a.65.65,0,0,0-.552-.755c-2.981-.921-5.952-1.877-8.933-2.8a1.583,1.583,0,0,0-.884-.007c-3.032.94-6.055,1.913-9.087,2.854a.524.524,0,0,0-.432.613c.01,4.181-.007,8.362.011,12.543a7.9,7.9,0,0,0,1.648,4.869,12.532,12.532,0,0,0,7.024,4.3,3.494,3.494,0,0,0,1.861.191,15.648,15.648,0,0,0,5.939-2.728,8.3,8.3,0,0,0,3.391-6.753C-397.671,270.432-397.684,268.469-397.684,266.506Zm6.316-15.917a8.735,8.735,0,0,0,8.719-8.757,8.745,8.745,0,0,0-8.679-8.692,8.734,8.734,0,0,0-8.773,8.65A8.732,8.732,0,0,0-391.369,250.589Z" transform="translate(421.047 -229.65)" fill="#0867ff"/>
  <path id="Path_8" data-name="Path 8" d="M-364.983,465.136c1.842-1.847,3.64-3.644,5.429-5.45a1.864,1.864,0,0,1,1.493-.655,1.664,1.664,0,0,1,1.489,1.028,1.673,1.673,0,0,1-.23,1.793,3.712,3.712,0,0,1-.333.36q-3.2,3.2-6.4,6.4a1.79,1.79,0,0,1-2.88.009q-1.62-1.617-3.237-3.237a1.776,1.776,0,0,1-.146-2.61,1.757,1.757,0,0,1,2.609.139C-366.463,463.627-365.754,464.356-364.983,465.136Z" transform="translate(377.693 -425.6)" fill="#0867ff"/>
</svg>
